<svg width="147" height="27" viewBox="0 0 147 27" fill="none" xmlns="http://www.w3.org/2000/svg">
<g clip-path="url(#clip0_603_4371)">
<path d="M29.8717 24.5023L30.4212 23.5476H23.705L23.125 24.5023H29.8717Z" fill="#4B2EF5"/>
<path d="M26.796 18.4226L25.9946 19.7516H32.6039L33.3748 18.4226H26.796Z" fill="#4B2EF5"/>
<path d="M31.2378 22.1269L31.9018 20.9812H25.2543L24.5598 22.1269H31.2378Z" fill="#4B2EF5"/>
<path d="M36.5649 23.5476L37.1221 24.5023H43.5253L42.9377 23.5476H36.5649Z" fill="#4B2EF5"/>
<path d="M38.4348 10.2576L43.0064 2.63501H36.2597L33.1611 8.05029L30.0549 2.63501H23.6516L28.3453 10.2576H38.4348Z" fill="#4B2EF5"/>
<path d="M29.887 13.2976L28.8567 15.0009H37.6945L36.6413 13.2976H29.887Z" fill="#4B2EF5"/>
<path d="M28.6428 10.7312L29.8105 12.633H37.0151L38.1523 10.7312H28.6428Z" fill="#4B2EF5"/>
<path d="M35.092 20.9812L35.7484 22.1269H42.0677L41.3655 20.9812H35.092Z" fill="#4B2EF5"/>
<path d="M33.6113 18.4226L34.3822 19.7516H40.6099L39.7932 18.4226H33.6113Z" fill="#4B2EF5"/>
<path d="M28.3453 15.8562L27.4219 17.3761H39.1523L38.2212 15.8562H28.3453Z" fill="#4B2EF5"/>
<path d="M15.4014 23.5476H10.4788V24.51H15.4014V23.5476Z" fill="#4B2EF5"/>
<path d="M10.4788 10.2576H15.4014V7.56146H23.4761V2.63501H2.39648V7.56146H10.4788V10.2576Z" fill="#4B2EF5"/>
<path d="M15.4014 20.9812H10.4788V22.1269H15.4014V20.9812Z" fill="#4B2EF5"/>
<path d="M15.4014 10.7312H10.4788V12.6254H15.4014V10.7312Z" fill="#4B2EF5"/>
<path d="M15.4014 13.2976H10.4788V15.0085H15.4014V13.2976Z" fill="#4B2EF5"/>
<path d="M15.4014 18.4226H10.4788V19.7592H15.4014V18.4226Z" fill="#4B2EF5"/>
<path d="M15.4014 15.8562H10.4788V17.3761H15.4014V15.8562Z" fill="#4B2EF5"/>
<path d="M43.6856 27H2.37355C1.06085 27 0 25.9307 0 24.617V2.38303C0 1.06931 1.06848 0 2.37355 0H43.6856C44.9983 0 46.0591 1.06931 46.0591 2.38303V24.6246C46.0591 25.9383 44.9907 27.0076 43.6856 27.0076V27ZM2.37355 1.2297C1.7401 1.2297 1.22112 1.74908 1.22112 2.38303V24.6246C1.22112 25.2586 1.7401 25.7779 2.37355 25.7779H43.6856C44.319 25.7779 44.838 25.2586 44.838 24.6246V2.38303C44.838 1.74908 44.319 1.2297 43.6856 1.2297H2.37355Z" fill="#4B2EF5"/>
<path d="M67.1235 5.46875V8.16493H63.2693V19.7593H60.4531V8.16493H56.6218V5.46875H67.1235Z" fill="#4B2EF5"/>
<path d="M70.3213 11.3042C70.5655 10.6473 70.97 10.1585 71.5348 9.8377C72.0995 9.50927 72.7253 9.34888 73.4199 9.34888V12.2895C72.6185 12.1978 71.9011 12.3582 71.2676 12.7783C70.6342 13.1984 70.3213 13.9011 70.3213 14.8787V19.7593H67.6882V9.54746H70.3213V11.3042Z" fill="#4B2EF5"/>
<path d="M82.7233 9.5475H85.3563V19.7517H82.7233V18.5449C81.9372 19.5379 80.8305 20.0343 79.4034 20.0343C77.9762 20.0343 76.8772 19.515 75.9079 18.4762C74.9386 17.4375 74.4502 16.1619 74.4502 14.6496C74.4502 13.1373 74.9386 11.8618 75.9079 10.823C76.8772 9.78427 78.0449 9.26489 79.4034 9.26489C80.8305 9.26489 81.9372 9.76136 82.7233 10.7543V9.5475ZM77.8693 16.7195C78.3959 17.2541 79.0752 17.5291 79.8842 17.5291C80.6932 17.5291 81.3801 17.2618 81.9143 16.7195C82.4485 16.1772 82.7156 15.4898 82.7156 14.6496C82.7156 13.8094 82.4485 13.1144 81.9143 12.5797C81.3801 12.0451 80.7008 11.7701 79.8842 11.7701C79.0676 11.7701 78.3959 12.0375 77.8693 12.5797C77.3351 13.1144 77.0756 13.8094 77.0756 14.6496C77.0756 15.4898 77.3427 16.1848 77.8693 16.7195Z" fill="#4B2EF5"/>
<path d="M93.8127 9.26489C94.9269 9.26489 95.8504 9.63915 96.5755 10.3877C97.3005 11.1362 97.6668 12.1673 97.6668 13.4887V19.7517H95.0338V13.8094C95.0338 13.1297 94.8506 12.6103 94.4843 12.2513C94.118 11.8923 93.6295 11.709 93.0189 11.709C92.3397 11.709 91.7978 11.9229 91.3857 12.343C90.9736 12.7631 90.7751 13.397 90.7751 14.2448V19.7517H88.1421V9.5475H90.7751V10.6932C91.4162 9.73844 92.4236 9.26489 93.8127 9.26489Z" fill="#4B2EF5"/>
<path d="M105.177 20.0419C103.642 20.0419 102.36 19.5225 101.33 18.4914C100.3 17.4603 99.7883 16.1771 99.7883 14.6572C99.7883 13.1372 100.3 11.8541 101.33 10.823C102.353 9.79184 103.635 9.27246 105.177 9.27246C106.169 9.27246 107.077 9.50924 107.886 9.99042C108.703 10.464 109.321 11.1056 109.74 11.9075L107.474 13.2365C107.268 12.8164 106.962 12.4804 106.543 12.236C106.131 11.9916 105.665 11.8693 105.146 11.8693C104.36 11.8693 103.704 12.129 103.185 12.6561C102.666 13.1831 102.406 13.8476 102.406 14.6648C102.406 15.4821 102.666 16.1313 103.185 16.6507C103.704 17.1777 104.352 17.4374 105.146 17.4374C105.673 17.4374 106.146 17.3152 106.566 17.0784C106.978 16.8416 107.291 16.5132 107.497 16.0855L109.779 17.3916C109.328 18.1935 108.695 18.8351 107.878 19.3239C107.062 19.8051 106.161 20.0495 105.169 20.0495L105.177 20.0419Z" fill="#4B2EF5"/>
<path d="M117.243 9.26479C118.357 9.26479 119.281 9.63905 120.006 10.3876C120.731 11.1361 121.097 12.1672 121.097 13.4886V19.7516H118.464V13.8093C118.464 13.1296 118.281 12.6102 117.914 12.2512C117.548 11.8922 117.06 11.7089 116.449 11.7089C115.77 11.7089 115.228 11.9228 114.816 12.3429C114.404 12.763 114.205 13.3969 114.205 14.2447V19.7516H111.572V5.46875H114.205V10.6931C114.846 9.73834 115.854 9.26479 117.243 9.26479Z" fill="#4B2EF5"/>
<path d="M125.974 15.7343C126.325 17.0098 127.287 17.6514 128.851 17.6514C129.859 17.6514 130.622 17.3077 131.133 16.6279L133.255 17.85C132.247 19.3088 130.767 20.0344 128.805 20.0344C127.119 20.0344 125.768 19.5227 124.745 18.5068C123.722 17.491 123.219 16.2002 123.219 14.6497C123.219 13.0992 123.722 11.8313 124.73 10.8002C125.737 9.7767 127.027 9.25732 128.607 9.25732C130.103 9.25732 131.339 9.7767 132.308 10.8078C133.278 11.8389 133.766 13.1221 133.766 14.642C133.766 14.9858 133.736 15.3447 133.667 15.7266H125.982L125.974 15.7343ZM125.936 13.6949H131.133C130.981 12.9999 130.675 12.4805 130.202 12.1445C129.736 11.8084 129.202 11.6327 128.599 11.6327C127.89 11.6327 127.31 11.816 126.844 12.175C126.378 12.534 126.073 13.0457 125.928 13.6949H125.936Z" fill="#4B2EF5"/>
<path d="M147 19.7517H143.795L141.024 15.0926L138.254 19.7517H135.071L139.437 12.4193L135.3 5.46118H138.483L141.032 9.73841L143.581 5.46118H146.764L142.627 12.404L147.008 19.7441L147 19.7517Z" fill="#4B2EF5"/>
</g>
<defs>
<clipPath id="clip0_603_4371">
<rect width="147" height="27" fill="white"/>
</clipPath>
</defs>
</svg>
